<svg xmlns="http://www.w3.org/2000/svg" width="32" height="32" viewBox="0 0 32 32" fill="none">
  <path d="M0 4C0 1.79086 1.79086 0 4 0H28C30.2091 0 32 1.79086 32 4V28C32 30.2091 30.2091 32 28 32H4C1.79086 32 0 30.2091 0 28V4Z" fill="#333333"/>
  <path fill-rule="evenodd" clip-rule="evenodd" d="M22.1418 10.3575C22.8732 10.5543 23.4493 11.1341 23.6448 11.8703C24 13.2046 24 15.9886 24 15.9886C24 15.9886 24 18.7726 23.6448 20.107C23.4493 20.8432 22.8732 21.3988 22.1418 21.5956C20.816 21.9531 15.5 21.9531 15.5 21.9531C15.5 21.9531 10.184 21.9531 8.85821 21.5956C8.1268 21.3988 7.55075 20.8432 7.35523 20.107C7 18.7726 7 15.9886 7 15.9886C7 15.9886 7 13.2046 7.35523 11.8703C7.55075 11.1341 8.1268 10.5543 8.85821 10.3575C10.184 10 15.5 10 15.5 10C15.5 10 20.8161 10 22.1418 10.3575ZM13.7617 13.4612V18.5166L18.2049 15.989L13.7617 13.4612Z" fill="white"/>
</svg>
