<svg xmlns="http://www.w3.org/2000/svg" width="32" height="32" viewBox="0 0 32 32" fill="none">
  <path d="M0 4C0 1.79086 1.79086 0 4 0H28C30.2091 0 32 1.79086 32 4V28C32 30.2091 30.2091 32 28 32H4C1.79086 32 0 30.2091 0 28V4Z" fill="#333333"/>
  <path d="M16.6701 14.0121C17.5861 14.0121 18.4642 14.0121 19.3424 14.0121C19.8838 14.0121 20.0499 14.1761 19.9876 14.6492C19.9016 15.3103 19.8133 15.9714 19.7265 16.6325C19.6835 16.9597 19.5315 17.0897 19.1666 17.0916C18.4449 17.095 17.7233 17.093 17.0016 17.093C16.903 17.093 16.8036 17.093 16.6738 17.093C16.6738 17.2189 16.6738 17.3162 16.6738 17.4142C16.6716 19.4548 16.6694 21.4947 16.6664 23.5352C16.6664 23.9224 16.5796 23.999 16.1465 23.9997C15.3878 23.9997 14.6298 24.0004 13.871 23.9997C13.4972 23.9997 13.3993 23.9104 13.3986 23.5685C13.3979 21.5033 13.3986 19.4381 13.3986 17.3722V17.093C12.9002 17.093 12.4233 17.093 11.9457 17.093C11.7884 17.093 11.6304 17.0996 11.474 17.0897C11.1877 17.071 11.0112 16.913 11.0082 16.6538C11 15.9208 10.9978 15.1884 11.0023 14.4553C11.0045 14.1654 11.1921 14.0161 11.5429 14.0135C12.0888 14.0095 12.6347 14.0128 13.1805 14.0115C13.2428 14.0115 13.3059 14.0055 13.3986 14.0002C13.3986 13.623 13.3852 13.2591 13.4016 12.8959C13.4335 12.1822 13.3934 11.4538 13.5403 10.758C13.894 9.08401 15.2713 8.07439 17.1737 8.01375C17.9132 7.98976 18.6533 8.00375 19.3935 8.00709C19.7302 8.00909 19.8964 8.16503 19.8993 8.47757C19.9045 9.06868 19.9045 9.66046 19.8993 10.2516C19.8964 10.5774 19.7354 10.7234 19.3728 10.7307C18.9107 10.7407 18.4472 10.7267 17.9858 10.7474C17.1062 10.7874 16.6886 11.1732 16.6723 11.9629C16.659 12.6353 16.6694 13.3084 16.6694 14.0121H16.6701Z" fill="white"/>
</svg>
