<svg xmlns="http://www.w3.org/2000/svg" width="32" height="32" viewBox="0 0 32 32" fill="none">
  <path d="M0 4C0 1.79086 1.79086 0 4 0H28C30.2091 0 32 1.79086 32 4V28C32 30.2091 30.2091 32 28 32H4C1.79086 32 0 30.2091 0 28V4Z" fill="#333333"/>
  <path fill-rule="evenodd" clip-rule="evenodd" d="M22.9508 13.1135C22.8977 11.992 22.6416 10.9985 21.8202 10.1801C21.0019 9.3616 20.0087 9.10543 18.8875 9.0492C17.7318 8.9836 14.2682 8.9836 13.1125 9.0492C11.9944 9.10231 11.0012 9.35847 10.1798 10.1769C9.35839 10.9954 9.10541 11.9888 9.04919 13.1103C8.9836 14.2662 8.9836 17.7307 9.04919 18.8865C9.10229 20.008 9.35839 21.0015 10.1798 21.8199C11.0012 22.6384 11.9913 22.8946 13.1125 22.9508C14.2682 23.0164 17.7318 23.0164 18.8875 22.9508C20.0087 22.8977 21.0019 22.6415 21.8202 21.8199C22.6385 21.0015 22.8946 20.008 22.9508 18.8865C23.0164 17.7307 23.0164 14.2693 22.9508 13.1135ZM19.7371 13.1009C20.1994 13.1009 20.5742 12.7291 20.5742 12.2637C20.5742 11.8013 20.1994 11.4264 19.7371 11.4264C19.2749 11.4264 18.9001 11.8013 18.9001 12.2637C18.9001 12.726 19.2718 13.1009 19.7371 13.1009ZM16.0013 12.4106C14.015 12.4106 12.4127 14.0132 12.4127 16C12.4127 17.9869 14.015 19.5895 16.0013 19.5895C17.9877 19.5895 19.59 17.9869 19.59 16C19.59 14.0132 17.9877 12.4106 16.0013 12.4106ZM16.0017 18.3337C14.718 18.3337 13.6686 17.2872 13.6686 16.0001C13.6686 14.713 14.7149 13.6665 16.0017 13.6665C17.2885 13.6665 18.3347 14.713 18.3347 16.0001C18.3347 17.2872 17.2853 18.3337 16.0017 18.3337ZM20.1275 21.4576C20.7428 21.2109 21.2144 20.7391 21.458 20.1268C21.7715 19.3391 21.754 17.6159 21.7427 16.4989C21.7408 16.3136 21.7391 16.145 21.7391 16.0001C21.7391 15.8552 21.7408 15.6866 21.7427 15.5014C21.754 14.3849 21.7715 12.6638 21.458 11.8734C21.2113 11.2579 20.7397 10.7862 20.1275 10.5425C19.3375 10.2308 17.6063 10.2474 16.4899 10.2581C16.3088 10.2598 16.1438 10.2614 16.0017 10.2614C15.8568 10.2614 15.6883 10.2597 15.5031 10.2578C14.3869 10.2465 12.6661 10.2291 11.8759 10.5425C11.2606 10.7893 10.789 11.2611 10.5454 11.8734C10.2337 12.6636 10.2503 14.3951 10.261 15.5118C10.2627 15.693 10.2643 15.8579 10.2643 16.0001C10.2643 16.145 10.2626 16.3136 10.2607 16.4988C10.2494 17.6153 10.232 19.3364 10.5454 20.1268C10.7921 20.7423 11.2637 21.214 11.8759 21.4576C12.666 21.7694 14.3971 21.7528 15.5135 21.7421C15.6946 21.7404 15.8596 21.7388 16.0017 21.7388C16.1466 21.7388 16.3151 21.7405 16.5003 21.7424C17.6165 21.7537 19.3373 21.7711 20.1275 21.4576Z" fill="white"/>
</svg>
